<svg width="52" height="67" viewBox="0 0 52 67" version="1.1" xmlns="http://www.w3.org/2000/svg" xmlns:xlink="http://www.w3.org/1999/xlink">
<title>Group</title>
<desc>Created using Figma</desc>
<g id="Canvas" transform="translate(12260 257)">
<g id="Group">
<g id="Vector">
<use xlink:href="#path0_fill" transform="translate(-12254.5 -255.364)" fill="#FFFFFF"/>
</g>
<g id="Vector">
<use xlink:href="#path1_fill" transform="translate(-12239 -257)" fill="#FFFFFF"/>
</g>
<g id="Vector">
<use xlink:href="#path2_fill" transform="translate(-12248.5 -245.929)" fill="#FFFFFF"/>
</g>
<g id="Vector">
<use xlink:href="#path3_fill" transform="translate(-12248.2 -205.702)" fill="#FFFFFF"/>
</g>
<g id="Vector">
<use xlink:href="#path4_fill" transform="translate(-12226.8 -206.06)" fill="#FFFFFF"/>
</g>
<g id="Vector">
<use xlink:href="#path5_fill" transform="translate(-12247.1 -209.217)" fill="#FFFFFF"/>
</g>
<g id="Vector">
<use xlink:href="#path6_fill" transform="translate(-12260 -209.417)" fill="#FFFFFF"/>
</g>
<g id="Vector">
<use xlink:href="#path7_fill" transform="translate(-12222.6 -209.417)" fill="#FFFFFF"/>
</g>
<g id="Vector">
<use xlink:href="#path8_fill" transform="translate(-12247.2 -215.787)" fill="#FFFFFF"/>
</g>
<g id="Vector">
<use xlink:href="#path9_fill" transform="translate(-12249.6 -217.551)" fill="#FFFFFF"/>
</g>
<g id="Vector">
<use xlink:href="#path10_fill" transform="translate(-12223.6 -217.424)" fill="#FFFFFF"/>
</g>
<g id="Vector">
<use xlink:href="#path11_fill" transform="translate(-12257.5 -243.392)" fill="#FFFFFF"/>
</g>
<g id="Vector">
<use xlink:href="#path12_fill" transform="translate(-12213.6 -243.085)" fill="#FFFFFF"/>
</g>
<g id="Vector">
<use xlink:href="#path13_fill" transform="translate(-12257.6 -224.608)" fill="#FFFFFF"/>
</g>
</g>
</g>
<defs>
<path id="path0_fill" d="M 40.1565 25.5916C 41.1731 23.4824 41.1985 21.5649 41.3256 19.7242C 41.4527 17.7684 41.2239 15.493 40.7029 14.3681C 40.093 13.0642 38.9366 11.4791 41.3256 10.9934C 41.3256 10.9934 39.3051 7.03066 35.7342 4.23118C 31.5152 0.920377 27.1565 0 27.1565 0C 27.1565 0 27.3217 2.50547 26.8896 2.8634C 26.0636 3.54089 22.3911 3.79656 21.2855 3.79656C 19.087 3.79656 15.9991 3.63038 14.8681 2.8634C 14.2454 2.44156 14.5123 1.38057 14.525 0.076698C 14.525 -0.345141 9.75955 1.40613 6.07431 4.20561C 2.21115 7.12014 0.381233 10.8528 0.381233 10.8528C 2.70675 11.6198 1.35973 12.7958 0.876835 14.3553C 0.50831 15.5314 0.127078 17.7556 0.254155 19.7114C 0.381233 21.5522 0.279571 22.8816 1.42327 25.5788C 2.09678 27.1767 0.965789 27.9309 0 27.8031C 0 27.8031 5.78203 40.2026 19.913 39.8702C 20.2053 39.8574 21.3617 39.8574 21.654 39.8702C 35.785 40.2026 41.5671 27.8031 41.5671 27.8031C 40.3344 28.3144 39.3432 27.279 40.1565 25.5916ZM 38.5553 22.4853C 38.1995 24.1471 37.8437 25.7706 36.5729 27.215C 35.1878 28.7873 33.4214 29.3626 31.8075 29.7844C 24.1066 31.8169 17.6384 30.9732 11.6911 30.1423C 10.3695 29.9634 8.47607 29.6566 6.64615 28.2888C 6.31575 28.0332 4.61291 26.7293 3.58359 24.2877C 2.6305 21.9996 2.80841 20.0182 2.9482 18.497C 3.06257 17.2187 3.25318 15.1607 4.48584 13.0387C 5.99806 10.4437 8.23462 9.24212 9.79768 8.41122C 14.0421 6.1742 18.0323 6.1742 20.8026 6.19976C 25.047 6.23811 32.6335 6.31481 36.4077 11.3513C 37.7929 13.1921 38.3774 15.3396 38.4791 15.7103C 39.3178 18.7782 38.8095 21.3093 38.5553 22.4853Z"/>
<path id="path1_fill" d="M -3.8781e-07 0.626557C -3.8781e-07 0.626557 1.37244 0.0129722 5.04498 0.00018922C 9.0225 -0.0125938 10.4712 0.626557 10.4712 0.626557L 10.4712 3.59222C 10.4712 3.59222 9.26395 4.32085 5.23559 4.3592C 1.25807 4.39755 0.0508318 3.69448 0.0508318 3.69448L -3.8781e-07 0.626557Z"/>
<path id="path2_fill" d="M 7.7027 0.676425C 6.34297 1.0727 4.38597 2.14647 3.05166 3.41199C 0.484694 5.85355 -0.239648 10.0336 0.0653384 12.2834C 0.154293 12.9098 0.611773 13.8941 1.22174 14.252C 2.21295 14.84 4.48764 15.3002 5.61863 15.0701C 6.21589 14.9551 7.28334 14.725 7.56291 13.8301C 7.88061 12.8075 7.29605 11.2096 7.24522 9.26661C 7.09273 4.43463 12.2267 0.817038 12.036 0.22902C 11.82 -0.397348 8.5287 0.433548 7.7027 0.676425Z"/>
<path id="path3_fill" d="M -3.8781e-07 -1.56043e-06C -3.8781e-07 -1.56043e-06 3.65983 0.051132 5.59141 1.81519C 6.16326 2.33929 6.56991 2.72278 6.82406 3.27245C 7.3832 4.42292 7.17988 5.54783 7.07822 6.07193C 6.62074 8.5007 3.83774 10.2648 3.83774 10.2648C 3.83774 10.2648 3.85045 9.07594 3.13881 7.49085C 2.52884 6.13585 2.23656 5.71401 1.20724 3.73264C 0.419355 2.21146 -3.8781e-07 -1.56043e-06 -3.8781e-07 -1.56043e-06Z"/>
<path id="path4_fill" d="M 7.19932 0C 7.19932 0 3.53948 0.0511336 1.6079 1.81519C 1.03606 2.33929 0.629407 2.72278 0.375252 3.27245C -0.183889 4.42292 0.0194346 5.54783 0.121097 6.07193C 0.578576 8.5007 3.36157 10.2648 3.36157 10.2648C 3.36157 10.2648 3.34887 9.07594 4.0605 7.49085C 4.67047 6.13585 4.96275 5.71401 5.99208 3.73264C 6.77996 2.21146 7.19932 0 7.19932 0Z"/>
<path id="path5_fill" d="M 1.93905e-07 2.50547C 1.93905e-07 2.50547 5.7439 -1.56043e-06 12.8857 -1.56043e-06C 22.4165 -1.56043e-06 26.2288 2.14755 26.2288 2.14755C 26.2288 2.14755 24.4243 1.99415 22.3148 3.20854C 21.6413 3.59203 20.3197 4.34623 19.6335 5.85462C 18.4008 8.53905 20.1672 11.4408 20.307 11.6581C 21.6032 13.729 23.2425 14.6621 23.2425 14.6621C 23.2425 14.6621 18.8075 16.5284 13.915 16.5284C 6.59532 16.5284 3.55817 14.7132 3.55817 14.7132C 3.55817 14.7132 6.03618 13.2688 6.96385 10.6227C 7.56111 8.92254 7.25613 6.82613 6.23951 5.39443C 4.23168 2.56939 1.93905e-07 2.50547 1.93905e-07 2.50547Z"/>
<path id="path6_fill" d="M 4.48578 0.0340392C 6.9892 -0.25997 8.84454 1.44017 9.12411 1.69583C 10.128 2.64177 10.5601 3.72833 11.1319 5.17281C 11.6021 6.37442 11.4369 6.3872 11.9071 7.61436C 12.7077 9.698 13.2795 9.82583 13.9149 11.5515C 14.2962 12.5997 14.7282 13.7758 14.4868 15.233C 14.4105 15.6677 14.0801 17.5851 12.3265 18.71C 10.7126 19.7327 8.70475 19.5537 7.38314 18.7612C 7.11628 18.6078 6.67151 18.2882 5.32449 16.1151C 3.20229 12.702 3.17688 12.1396 1.66466 9.63408C 1.2453 8.93102 0.889484 8.66257 0.584498 7.97229C 0.355758 7.44819 -0.317753 5.88866 0.17785 3.98399C 0.304927 3.49824 0.724283 1.96427 2.18567 0.92885C 2.389 0.762671 3.24042 0.187435 4.48578 0.0340392Z"/>
<path id="path7_fill" d="M 10.0708 0.0340392C 7.56742 -0.25997 5.71208 1.44017 5.43251 1.69583C 4.4286 2.64177 3.99654 3.72833 3.42469 5.17281C 2.9545 6.37442 3.1197 6.3872 2.64952 7.61436C 1.84893 9.698 1.27708 9.82583 0.64169 11.5515C 0.260458 12.5997 -0.171606 13.7758 0.0698417 15.233C 0.146088 15.6677 0.47649 17.5851 2.23016 18.71C 3.84404 19.7327 5.85187 19.5537 7.17348 18.7612C 7.44034 18.6078 7.88511 18.2882 9.23213 16.1151C 11.3543 12.702 11.3797 12.1396 12.892 9.63408C 13.3113 8.93102 13.6671 8.66257 13.9721 7.97229C 14.2009 7.44819 14.8744 5.88866 14.3788 3.98399C 14.2517 3.49824 13.8323 1.96427 12.3709 0.92885C 12.1676 0.762671 11.3162 0.187435 10.0708 0.0340392Z"/>
<path id="path8_fill" d="M 5.04498 -7.80213e-07C 2.49072 1.09934 -3.8781e-07 7.74651 -3.8781e-07 7.74651L 4.29522 6.5449C 4.29522 6.5449 5.09581 4.97259 5.78203 4.01386C 5.95993 3.7582 6.43012 3.29802 6.83677 3.45141C 7.12905 3.56646 7.2053 4.01387 7.04009 4.19283C 6.13784 5.22825 5.7439 6.1742 5.7439 6.1742C 5.7439 6.1742 9.36561 5.48391 13.1906 5.36886C 17.435 5.24103 21.1457 5.91854 21.1457 5.91854C 20.9424 5.44556 20.1545 4.5891 19.9639 4.23118C 19.6335 3.61759 20.3324 3.24689 20.7009 3.55368C 21.6413 4.33344 21.8955 5.13877 22.6452 6.19976L 26.2542 7.33745C 25.7586 5.48391 25.1486 4.29509 24.653 3.17019C 23.6872 0.971511 22.0734 0.0511305 22.0734 0.0511305C 21.1838 0.524102 17.2698 1.53396 12.9238 1.4317C 10.5983 1.36778 8.12025 1.09934 5.04498 -7.80213e-07Z"/>
<path id="path9_fill" d="M 2.82038 7.80213e-07C -1.3986 2.7867 0.164459 9.53613 0.901508 9.9324C 0.901508 9.9324 3.64638 2.67165 5.67962 1.63622L 2.82038 7.80213e-07Z"/>
<path id="path10_fill" d="M 2.9482 7.80213e-07C 6.98926 3.05514 4.98144 9.68952 4.23168 10.0347C 4.23168 10.0347 1.94429 2.60773 1.55124e-06 1.44448L 2.9482 7.80213e-07Z"/>
<path id="path11_fill" d="M 1.27078 1.41233C 0.762465 2.06427 -4.84762e-08 5.47733 -4.84762e-08 6.9346C -4.84762e-08 10.8334 0.991205 12.9426 1.32161 13.4156C 1.72825 14.0036 2.2874 14.3743 2.97361 14.6044C 3.15152 14.6683 3.55817 14.6939 3.68525 14.5533C 3.68525 14.5533 2.99903 13.3261 2.70675 12.1628C 1.34702 6.79398 2.6305 1.68078 3.59629 0.0829005C 3.72337 -0.134411 3.02444 0.134032 2.783 0.223513C 2.38906 0.364127 1.86804 0.645353 1.27078 1.41233Z"/>
<path id="path12_fill" d="M 2.41447 1.41233C 2.92278 2.06427 3.68525 5.47733 3.68525 6.9346C 3.68525 10.8334 2.69404 12.9426 2.36364 13.4156C 1.957 14.0036 1.39785 14.3743 0.711636 14.6044C 0.533727 14.6683 0.127078 14.6939 7.7562e-07 14.5533C 7.7562e-07 14.5533 0.571847 13.3261 0.851418 12.1628C 2.36364 5.88639 1.05474 1.68078 0.0889527 0.0829007C -0.0381248 -0.134411 0.660805 0.134033 0.902252 0.223514C 1.28348 0.364127 1.81721 0.645354 2.41447 1.41233Z"/>
<path id="path13_fill" d="M 3.69521 -7.80213e-07L 5.11847 1.89189C 4.73724 2.09642 3.30127 4.33344 2.93274 5.04929C 2.5388 5.80349 2.24652 6.96674 2.25923 7.23519C 2.32277 8.75636 3.49188 9.76622 3.59354 9.88127C 4.43226 10.7505 6.98651 11.6581 6.98651 11.6581L 6.89756 13.9974C 6.89756 13.9974 5.43617 13.5883 4.53392 13.1026C 2.52609 12.0416 1.66197 11.3385 0.988455 10.4949C -0.345858 8.82028 -0.00274906 6.775 0.175159 5.82905C 0.594515 3.60481 3.21231 0.447405 3.69521 -7.80213e-07Z"/>
</defs>
</svg>
